<?xml version="1.0" encoding="UTF-8"?>
<svg id="Layer_1" xmlns="http://www.w3.org/2000/svg" xmlns:i="http://ns.adobe.com/AdobeIllustrator/10.0/" version="1.1" viewBox="0 0 330.94 241.09">
  <!-- Generator: Adobe Illustrator 30.2.1, SVG Export Plug-In . SVG Version: 2.1.1 Build 1)  -->
  <path d="M183.79,98.33c-7.64,0-13.85,6.35-13.85,14.15s6.21,14.15,13.85,14.15,13.85-6.35,13.85-14.15-6.21-14.15-13.85-14.15"/>
  <path d="M283.37,68.63h-41.21v-21.11c0-12.9-10.48-23.36-23.4-23.36h-106.59c-12.92,0-23.4,10.46-23.4,23.36v21.11h-41.22c-12.92,0-23.4,10.46-23.4,23.36v34.64h23.65v-34.97h41.4v34.97h23.73V47.19h105.07v79.44h23.65v-34.97h41.47v34.97h23.65v-34.64c0-12.9-10.48-23.36-23.4-23.36"/>
  
</svg>