<?xml version="1.0" encoding="UTF-8"?>
<svg id="Layer_1" xmlns="http://www.w3.org/2000/svg" version="1.1" viewBox="0 0 300 108">
  <!-- Generator: Adobe Illustrator 30.2.1, SVG Export Plug-In . SVG Version: 2.1.1 Build 1)  -->
  <path d="M168.21,79.7c-7.64,0-13.85,6.35-13.85,14.15s6.21,14.15,13.85,14.15,13.85-6.35,13.85-14.15-6.21-14.15-13.85-14.15"/>
  <path d="M275.16,46.82h-43.75v-22.41c0-13.7-11.12-24.8-24.84-24.8h-113.14c-13.72,0-24.84,11.1-24.84,24.8v22.41H24.84c-13.72,0-24.84,11.1-24.84,24.8v36.77h25.11v-37.12h43.94v37.12h25.19V24.06h111.53v84.33h25.11v-37.12h44.02v37.12h25.11v-36.77c0-13.7-11.12-24.8-24.84-24.8"/>
</svg>