<?xml version="1.0" encoding="UTF-8"?>
<svg id="Layer_1" xmlns="http://www.w3.org/2000/svg" version="1.1" viewBox="0 0 330.9 114.5">
  <!-- Generator: Adobe Illustrator 30.2.1, SVG Export Plug-In . SVG Version: 2.1.1 Build 1)  -->
  <defs>
    <style>
      .st0 {
        fill: #fafcfc;
      }

      .st1 {
        fill: #d02b2f;
      }
    </style>
  </defs>
  <rect class="st1" width="330.9" height="114.5"/>
  <path class="st0" d="M47.8,31.8v15.3h-9v-15.3h-5.4v21.1h6.3c4.4,0,8.1,3.7,8.1,8.1v21.2c0,4.4-3.7,8.1-8.1,8.1h-7.2c-4.5,0-8.1-3.7-8.1-8.1v-15.3h9v15.3h5.4v-21.2h-6.3c-4.5,0-8.1-3.6-8.1-8.1v-21.1c0-4.5,3.6-8.1,8.1-8.1h7.2c4.4,0,8.1,3.6,8.1,8.1Z"/>
  <path class="st0" d="M72.1,90.3h-7.2c-4.5,0-8.1-3.7-8.1-8.1V23.6h9v58.6h5.4V23.6h9v58.6c0,4.4-3.6,8.1-8.1,8.1Z"/>
  <path class="st0" d="M89.2,23.6h11.7c6.5,0,11.8,5.3,11.8,11.7v14.4c0,3-1.2,5.6-3.1,7.5,1.9,2,3.1,4.8,3.1,7.8v14.5c0,6.4-5.3,10.8-11.8,10.8h-11.7V23.6ZM100.9,31.7h-2.7v21.2h2.7c1.5,0,2.7-1.2,2.7-2.7v-15.8c0-1.4-1.2-2.7-2.7-2.7ZM100.9,82.6c1.5,0,2.7-1.2,2.7-2.7v-15.8c0-1.4-1.2-2.7-2.7-2.7h-2.7v21.2h2.7Z"/>
  <path class="st0" d="M145.1,31.8v15.3h-9v-15.3h-5.4v21.1h6.3c4.4,0,8.1,3.7,8.1,8.1v21.2c0,4.4-3.7,8.1-8.1,8.1h-7.2c-4.5,0-8.1-3.7-8.1-8.1v-15.3h9v15.3h5.4v-21.2h-6.3c-4.5,0-8.1-3.6-8.1-8.1v-21.1c0-4.5,3.6-8.1,8.1-8.1h7.2c4.4,0,8.1,3.6,8.1,8.1Z"/>
  <path class="st0" d="M154.1,82.2V31.7c0-4.4,3.6-8.1,8.1-8.1h7.2c4.5,0,8.1,3.7,8.1,8.1v50.5c0,4.4-3.6,8.1-8.1,8.1h-7.2c-4.5,0-8.1-3.7-8.1-8.1ZM163.1,31.7v50.5h5.4V31.7h-5.4Z"/>
  <path class="st0" d="M201.8,90.3h-7.2c-4.5,0-8.1-3.7-8.1-8.1V31.7c0-4.4,3.6-8.1,8.1-8.1h7.2c4.4,0,8.1,3.7,8.1,8.1v15.3h-9v-15.3h-5.4v50.5h5.4v-15.4h9v15.4c0,4.4-3.7,8.1-8.1,8.1Z"/>
  <path class="st0" d="M234.2,90.3h-7.2c-4.5,0-8.1-3.7-8.1-8.1V31.7c0-4.4,3.6-8.1,8.1-8.1h7.2c4.4,0,8.1,3.7,8.1,8.1v15.3h-9v-15.3h-5.4v50.5h5.4v-15.4h9v15.4c0,4.4-3.7,8.1-8.1,8.1Z"/>
  <path class="st0" d="M274.8,47h-9v-15.3h-5.4v21.2h14.4v8.1h-14.4v21.2h5.4v-15.4h9v23.5h-23.5V23.6h23.5v23.4Z"/>
  <path class="st0" d="M283.7,23.6h11.7c6.5,0,11.7,5.3,11.7,11.7v14.4c0,3-1.1,5.5-2.9,7.3,1.8,2,2.9,4.6,2.9,7.6v25.7h-9v-26.6c0-1.5-1.2-2.7-2.7-2.7h-2.7v29.3h-9V23.6ZM295.4,31.7h-2.7v21.2h2.7c1.5,0,2.7-1.2,2.7-2.7v-15.8c0-1.4-1.2-2.7-2.7-2.7Z"/>
</svg>